<svg width="20" height="20" viewBox="0 0 20 20" fill="none" xmlns="http://www.w3.org/2000/svg">
<path d="M20 12.4912L0.029743 12.4912L0.0297432 7.5651L20 7.5651L20 12.4912Z" fill="#00FFFF"/>
<path d="M2.83231 13.0999C3.58926 13.5135 4.23627 14.1036 4.71897 14.8205C5.20893 15.5575 5.5648 16.376 5.77004 17.2379C5.99192 18.1416 6.10311 19.0692 6.10112 20L11.0376 20C11.0504 18.4366 10.795 16.8827 10.2826 15.4064C9.81037 14.0372 9.07268 12.7755 8.11216 11.6942C7.14648 10.6252 5.96128 9.77946 4.63839 9.21534C3.17065 8.5969 1.59117 8.29079 -0.000314713 8.31633L-0.000314893 12.4525C1.11148 12.4525 2.05569 12.6683 2.83231 13.0999Z" fill="#00FFFF"/>
<path d="M2.83232 6.90006C3.58927 6.48645 4.23628 5.89638 4.71898 5.17945C5.20859 4.4429 5.56444 3.62509 5.77005 2.7639C5.9918 1.85953 6.10298 0.931385 6.10113 -2.15801e-07L11.0376 0C11.0503 1.56394 10.7949 3.11839 10.2826 4.59535C9.81076 5.96422 9.07302 7.2254 8.11217 8.30576C7.14698 9.37532 5.96164 10.2212 4.6384 10.7846C3.17078 11.4037 1.5913 11.7104 -0.000304733 11.6854L-0.000304552 7.54749C1.11149 7.54749 2.0557 7.33168 2.83232 6.90006Z" fill="#00FFFF"/>
</svg>
