<svg width="20" height="20" viewBox="0 0 20 20" fill="none" xmlns="http://www.w3.org/2000/svg">
<path d="M13.2557 9.26813C13.0868 9.26759 12.9195 9.30012 12.7632 9.36389C12.611 9.42337 12.4716 9.51162 12.3528 9.62381C12.2329 9.74093 12.1334 9.87734 12.0587 10.0274C11.9827 10.1908 11.9385 10.3672 11.9287 10.5472H14.6031C14.5873 10.194 14.4353 9.86059 14.1791 9.61697C13.9283 9.38504 13.5971 9.25991 13.2557 9.26813Z" fill="black"/>
<path d="M8.29734 9.22025C8.38548 9.1306 8.45361 9.02329 8.49724 8.90539C8.54086 8.78749 8.55899 8.66167 8.55042 8.53625C8.56002 8.41243 8.54435 8.28795 8.50438 8.17037C8.4644 8.05279 8.40095 7.94456 8.31786 7.85226C8.24653 7.77508 8.15968 7.71385 8.06302 7.67259C7.96636 7.63133 7.86207 7.61098 7.75699 7.61286H5.82812V9.43228H7.69543C7.80487 9.43931 7.9146 9.42415 8.01803 9.38772C8.12147 9.35128 8.21647 9.29431 8.29734 9.22025Z" fill="black"/>
<path d="M10 0C8.02219 0 6.08879 0.586489 4.4443 1.6853C2.79981 2.78412 1.51809 4.3459 0.761209 6.17316C0.00433279 8.00042 -0.1937 10.0111 0.192152 11.9509C0.578004 13.8907 1.53041 15.6725 2.92894 17.0711C4.32746 18.4696 6.10929 19.422 8.0491 19.8078C9.98891 20.1937 11.9996 19.9957 13.8268 19.2388C15.6541 18.4819 17.2159 17.2002 18.3147 15.5557C19.4135 13.9112 20 11.9778 20 10C19.9982 7.34839 18.944 4.8059 17.0691 2.93093C15.1941 1.05596 12.6516 0.00181183 10 0V0ZM11.5321 6.79206H14.9521V7.64706H11.5321V6.79206ZM10.0479 12.5992C9.92986 12.8298 9.75872 13.0291 9.54857 13.1806C9.32387 13.3395 9.07419 13.4597 8.80985 13.5362C8.5153 13.6144 8.21173 13.6535 7.90698 13.6525H4.42545V6.45007H8.28318C8.52132 6.44667 8.75651 6.50312 8.96717 6.61423C9.16408 6.718 9.33845 6.85982 9.48017 7.03146C9.62487 7.20566 9.73618 7.40508 9.80848 7.6197C9.89135 7.83815 9.93309 8.07005 9.9316 8.30369C9.93327 8.65223 9.84113 8.9948 9.66484 9.29548C9.4894 9.60225 9.21775 9.84264 8.89193 9.97948C9.28491 10.0925 9.62907 10.3331 9.87004 10.6635C10.1192 10.9899 10.256 11.3883 10.2599 11.7989C10.257 12.0792 10.1841 12.3542 10.0479 12.5992ZM15.9302 11.4022H11.9494C11.9642 11.5903 12.0153 11.7738 12.0999 11.9425C12.1723 12.0958 12.2746 12.233 12.4008 12.3461C12.5257 12.4571 12.6693 12.5451 12.8249 12.606C13.0263 12.6751 13.24 12.7011 13.4521 12.6822C13.6642 12.6634 13.87 12.6001 14.0561 12.4966C14.2724 12.3923 14.4428 12.2122 14.5349 11.9904L15.6635 12.3119C15.4651 12.72 15.148 13.0585 14.7538 13.2832C14.306 13.552 13.7917 13.6895 13.2695 13.6799C12.885 13.6869 12.5032 13.6147 12.1477 13.4678C11.8302 13.3394 11.5421 13.1476 11.301 12.9042C11.0599 12.6607 10.871 12.3708 10.7456 12.052C10.617 11.73 10.552 11.3863 10.554 11.0397C10.5513 10.6847 10.6139 10.3323 10.7387 10C10.8602 9.67573 11.0476 9.38011 11.2889 9.13174C11.5302 8.88336 11.8203 8.6876 12.1409 8.55677C12.5011 8.40995 12.8874 8.33781 13.2763 8.34473C13.663 8.33778 14.0471 8.40994 14.4049 8.55677C14.9095 8.78604 15.3301 9.16675 15.6083 9.64603C15.8866 10.1253 16.0087 10.6794 15.9576 11.2312C15.9524 11.2887 15.9433 11.3459 15.9302 11.4022Z" fill="black"/>
<path d="M8.57778 10.855C8.50429 10.7696 8.4163 10.6978 8.31786 10.643C8.21291 10.5939 8.09856 10.5682 7.98271 10.5677H5.82812V12.4692H7.88011C8.00485 12.4695 8.12828 12.4438 8.24262 12.394C8.3513 12.3489 8.4492 12.2813 8.5299 12.1956C8.61144 12.1103 8.67639 12.0106 8.72142 11.9015C8.81726 11.6646 8.81726 11.3997 8.72142 11.1628C8.69186 11.0526 8.64325 10.9484 8.57778 10.855Z" fill="black"/>
</svg>
