<svg width="20" height="20" viewBox="0 0 20 20" fill="none" xmlns="http://www.w3.org/2000/svg">
<path d="M10.0479 8.249C9.7013 8.24765 9.36208 8.34919 9.07323 8.54077C8.78438 8.73235 8.55888 9.00535 8.4253 9.32519C8.29172 9.64502 8.25607 9.99731 8.32286 10.3374C8.38964 10.6775 8.55587 10.9902 8.80048 11.2358C9.04509 11.4813 9.35708 11.6488 9.69693 11.7169C10.0368 11.785 10.3892 11.7507 10.7096 11.6184C11.0299 11.4861 11.3038 11.2617 11.4965 10.9736C11.6892 10.6855 11.7921 10.3466 11.7921 10C11.7921 9.53681 11.6086 9.09246 11.2816 8.76428C10.9547 8.43609 10.5111 8.25081 10.0479 8.249Z" fill="black"/>
<path d="M10 0C8.02219 0 6.08879 0.58649 4.4443 1.6853C2.79981 2.78412 1.51809 4.3459 0.761209 6.17316C0.00433279 8.00043 -0.1937 10.0111 0.192152 11.9509C0.578004 13.8907 1.53041 15.6725 2.92894 17.0711C4.32746 18.4696 6.10929 19.422 8.0491 19.8078C9.98891 20.1937 11.9996 19.9957 13.8268 19.2388C15.6541 18.4819 17.2159 17.2002 18.3147 15.5557C19.4135 13.9112 20 11.9778 20 10C19.9982 7.34839 18.944 4.8059 17.0691 2.93093C15.1941 1.05596 12.6516 0.00181183 10 0V0ZM15.5472 12.2161C15.5454 13.099 15.1939 13.9453 14.5696 14.5696C13.9453 15.1939 13.099 15.5454 12.2161 15.5472H7.7907C6.90781 15.5454 6.06159 15.1939 5.43729 14.5696C4.81299 13.9453 4.46146 13.099 4.45965 12.2161V7.7907C4.45965 6.90725 4.8106 6.05998 5.43529 5.43529C6.05998 4.81059 6.90725 4.45964 7.7907 4.45964H12.2161C13.099 4.46145 13.9453 4.81298 14.5696 5.43728C15.1939 6.06158 15.5454 6.9078 15.5472 7.7907V12.2161Z" fill="black"/>
<path d="M12.216 5.47194H7.79059C7.48507 5.46827 7.1819 5.52574 6.89892 5.64097C6.61594 5.7562 6.35886 5.92686 6.14281 6.14291C5.92676 6.35896 5.7561 6.61604 5.64087 6.89902C5.52564 7.182 5.46817 7.48517 5.47185 7.79069V12.2161C5.47366 12.8227 5.71587 13.4037 6.14539 13.832C6.57491 14.2602 7.1567 14.5007 7.76323 14.5007H12.1887C12.794 14.4989 13.374 14.2576 13.8021 13.8295C14.2301 13.4015 14.4714 12.8215 14.4732 12.2161V7.79069C14.4805 7.18413 14.247 6.59942 13.8239 6.16476C13.4008 5.7301 12.8226 5.48095 12.216 5.47194ZM10.0478 12.7291C9.50664 12.7291 8.97767 12.5687 8.52774 12.268C8.07781 11.9674 7.72713 11.5401 7.52005 11.0402C7.31297 10.5402 7.25879 9.99011 7.36436 9.45938C7.46993 8.92866 7.73051 8.44115 8.11314 8.05852C8.49577 7.67589 8.98328 7.41531 9.514 7.30974C10.0447 7.20417 10.5948 7.25835 11.0948 7.46543C11.5947 7.67251 12.022 8.02319 12.3226 8.47312C12.6233 8.92305 12.7837 9.45202 12.7837 9.99315C12.7837 10.7188 12.4955 11.4147 11.9824 11.9278C11.4693 12.4409 10.7734 12.7291 10.0478 12.7291ZM12.9342 7.73597C12.7977 7.7428 12.6622 7.70857 12.5454 7.63768C12.4285 7.5668 12.3355 7.46252 12.2784 7.33829C12.2214 7.21406 12.2029 7.07559 12.2253 6.94074C12.2477 6.80588 12.31 6.68084 12.4041 6.58173C12.4983 6.48262 12.62 6.41399 12.7535 6.38471C12.887 6.35543 13.0263 6.36683 13.1533 6.41744C13.2802 6.46805 13.3892 6.55555 13.4659 6.66865C13.5427 6.78175 13.5838 6.91527 13.584 7.05197C13.5887 7.14014 13.5753 7.22833 13.5447 7.31115C13.5142 7.39398 13.467 7.46971 13.4062 7.53372C13.3454 7.59773 13.2722 7.64867 13.1911 7.68344C13.1099 7.71822 13.0225 7.73609 12.9342 7.73597Z" fill="black"/>
</svg>
