<svg id="Layer_1" data-name="Layer 1" xmlns="http://www.w3.org/2000/svg" viewBox="0 0 494.6 75.45"><path d="M106.05,1.72H89.79l-13.61,36L62.52,73.83h16l5.66-16.06h27l5.46,16.06H133l-13.5-36.11ZM88.28,46l2.92-8.24,6.47-18.23h.2l6.26,18.23L107,46Z"/><path d="M191,8.89a21.39,21.39,0,0,0-7.72-5.2,30,30,0,0,0-11.52-2H139.28V73.83h15.86V48H171.8a30.16,30.16,0,0,0,11.52-2A21.54,21.54,0,0,0,191,40.8a19.56,19.56,0,0,0,2.32-3.08,20,20,0,0,0,2-4.34,27.62,27.62,0,0,0,0-17.12A19.92,19.92,0,0,0,191,8.89ZM155.14,14h12.32a33.06,33.06,0,0,1,5.25.4A12.31,12.31,0,0,1,177.16,16a8.63,8.63,0,0,1,3.08,3.28,11.62,11.62,0,0,1,1.16,5.56,11.55,11.55,0,0,1-1.16,5.55,8.56,8.56,0,0,1-3.08,3.28,12.12,12.12,0,0,1-4.45,1.57,33.06,33.06,0,0,1-5.25.4H155.14Z"/><polygon points="206.65 37.72 206.65 73.83 222.5 73.83 222.5 37.72 222.5 1.72 206.65 1.72 206.65 37.72"/><polygon points="347.95 37.72 347.95 50.1 347.74 50.1 340.05 37.72 317.65 1.72 301.89 1.72 301.89 37.72 301.89 73.83 316.74 73.83 316.74 37.72 316.74 25.55 316.94 25.55 324.5 37.72 346.94 73.83 362.79 73.83 362.79 37.72 362.79 1.72 347.95 1.72 347.95 37.72"/><polygon points="371.07 15.05 392.69 15.05 392.69 37.72 392.69 73.83 408.55 73.83 408.55 37.72 408.55 15.05 430.16 15.05 430.16 1.72 371.07 1.72 371.07 15.05"/><path d="M54,37.72A20.79,20.79,0,0,0,52,36.26a26.64,26.64,0,0,0-7.12-3.38q-3.59-1.07-5.61-1.47-6.76-1.71-11-2.83a40.66,40.66,0,0,1-6.56-2.22,7.26,7.26,0,0,1-3.18-2.42,6.49,6.49,0,0,1-.81-3.44,6.78,6.78,0,0,1,1-3.83,8.65,8.65,0,0,1,2.58-2.53,10.28,10.28,0,0,1,3.48-1.41,18.57,18.57,0,0,1,3.84-.41,26.78,26.78,0,0,1,5.4.51,13.15,13.15,0,0,1,4.39,1.71,9,9,0,0,1,3.09,3.34,12.89,12.89,0,0,1,1.36,5.35H58.28a22.21,22.21,0,0,0-2.37-10.66,20.84,20.84,0,0,0-6.42-7.22,27.29,27.29,0,0,0-9.24-4.09A45.92,45.92,0,0,0,29.4,0a37.14,37.14,0,0,0-9.7,1.31,27.4,27.4,0,0,0-8.69,4A21.46,21.46,0,0,0,4.8,12.17a18.91,18.91,0,0,0-2.37,9.65A17.56,17.56,0,0,0,4.3,30.25a17.83,17.83,0,0,0,4.9,5.81,23.94,23.94,0,0,0,2.49,1.66,27.62,27.62,0,0,0,4.37,2.12,68,68,0,0,0,7.88,2.48q3.94,1.11,7.78,2a49.14,49.14,0,0,1,6.87,2.12,14.78,14.78,0,0,1,4.89,3,6.32,6.32,0,0,1,1.87,4.75,7,7,0,0,1-1.41,4.49,9.81,9.81,0,0,1-3.54,2.78,15.63,15.63,0,0,1-4.54,1.36,31.07,31.07,0,0,1-4.55.36,24.42,24.42,0,0,1-6.06-.76,15.29,15.29,0,0,1-5.1-2.32,11.51,11.51,0,0,1-3.48-4.1,13.14,13.14,0,0,1-1.31-6.16H0A23.83,23.83,0,0,0,2.43,61.41a22.63,22.63,0,0,0,6.82,8A29.1,29.1,0,0,0,19.14,74a45.42,45.42,0,0,0,11.57,1.47,44.61,44.61,0,0,0,13-1.72,27.35,27.35,0,0,0,9.39-4.8,20,20,0,0,0,5.71-7.32,22.18,22.18,0,0,0,1.92-9.19,17.66,17.66,0,0,0-2.58-10A22.7,22.7,0,0,0,54,37.72Z"/><polygon points="252.3 42.82 287.25 42.82 287.25 37.72 287.25 30.5 252.3 30.5 252.3 15.05 290.38 15.05 290.38 1.72 236.44 1.72 236.44 37.72 236.44 73.83 291.18 73.83 291.18 60.5 252.3 60.5 252.3 42.82"/><path d="M479.24,49.89a13.26,13.26,0,0,1-1.31,6.16,11.54,11.54,0,0,1-3.49,4.1,15.11,15.11,0,0,1-5.1,2.32,24.31,24.31,0,0,1-6.06.76,30.94,30.94,0,0,1-4.54-.36,15.79,15.79,0,0,1-4.55-1.36,9.86,9.86,0,0,1-3.53-2.78,7,7,0,0,1-1.42-4.49,6.36,6.36,0,0,1,1.87-4.75,14.94,14.94,0,0,1,4.9-3,49.14,49.14,0,0,1,6.87-2.12q3.84-.92,7.77-2a66.83,66.83,0,0,0,7.88-2.48,27.31,27.31,0,0,0,4.38-2.12,26.27,26.27,0,0,0,2.49-1.66,18,18,0,0,0,4.9-5.81,17.56,17.56,0,0,0,1.87-8.43,18.82,18.82,0,0,0-2.38-9.65,21.46,21.46,0,0,0-6.21-6.82,27.34,27.34,0,0,0-8.68-4A37.2,37.2,0,0,0,465.2,0a46,46,0,0,0-10.86,1.26,27.46,27.46,0,0,0-9.24,4.09,20.81,20.81,0,0,0-6.41,7.22,22.21,22.21,0,0,0-2.38,10.66h15.36A12.73,12.73,0,0,1,453,17.88a9,9,0,0,1,3.08-3.34,13.32,13.32,0,0,1,4.39-1.71,27,27,0,0,1,5.41-.51,18.57,18.57,0,0,1,3.84.41,10.28,10.28,0,0,1,3.48,1.41,8.89,8.89,0,0,1,2.58,2.53,6.78,6.78,0,0,1,1,3.83,6.49,6.49,0,0,1-.81,3.44,7.26,7.26,0,0,1-3.18,2.42,40.48,40.48,0,0,1-6.57,2.22q-4.18,1.13-11,2.83-2,.4-5.6,1.47a26.64,26.64,0,0,0-7.12,3.38,20.79,20.79,0,0,0-1.93,1.46,22.15,22.15,0,0,0-4.18,4.75,17.66,17.66,0,0,0-2.58,10,22,22,0,0,0,1.92,9.19,19.88,19.88,0,0,0,5.71,7.32,27.17,27.17,0,0,0,9.39,4.8,44.56,44.56,0,0,0,13,1.72A45.34,45.34,0,0,0,475.45,74a29.07,29.07,0,0,0,9.9-4.59,22.73,22.73,0,0,0,6.82-8,23.83,23.83,0,0,0,2.42-11.52Z"/></svg>