<svg width="20" height="20" viewBox="0 0 20 20" fill="none" xmlns="http://www.w3.org/2000/svg">
<path d="M9.99997 0C8.02217 0 6.08878 0.586488 4.44429 1.6853C2.7998 2.78411 1.51808 4.34589 0.761207 6.17315C0.00433278 8.0004 -0.1937 10.0111 0.192151 11.9509C0.578002 13.8907 1.53041 15.6725 2.92893 17.071C4.32745 18.4695 6.10927 19.4219 8.04908 19.8078C9.98888 20.1936 11.9995 19.9956 13.8268 19.2387C15.6541 18.4819 17.2158 17.2001 18.3146 15.5557C19.4135 13.9112 19.9999 11.9778 19.9999 9.99997C19.9981 7.34837 18.944 4.80589 17.069 2.93092C15.1941 1.05596 12.6516 0.00181182 9.99997 0V0ZM14.7879 6.50477C14.7879 6.90832 14.528 8.32419 14.3023 9.85633C13.9329 12.0246 13.5567 14.3638 13.5567 14.3638C13.5567 14.3638 13.4952 15.0478 13.0095 15.1504C12.4817 15.1377 11.9725 14.9527 11.5595 14.6238C11.4432 14.5417 9.39122 13.2558 8.64567 12.5718C8.56648 12.5227 8.50114 12.4542 8.45583 12.3728C8.41051 12.2914 8.38673 12.1998 8.38673 12.1067C8.38673 12.0135 8.41051 11.9219 8.45583 11.8405C8.50114 11.7591 8.56648 11.6906 8.64567 11.6416C9.7127 10.7524 10.9439 9.57589 11.7031 8.81666C12.052 8.46783 12.3871 7.66072 10.9576 8.64567C8.90559 10.0615 6.85361 11.3816 6.85361 11.3816C6.63776 11.4754 6.40495 11.5238 6.16962 11.5238C5.93429 11.5238 5.70147 11.4754 5.48562 11.3816C4.62379 11.1217 3.61148 10.7729 3.61148 10.7729C3.61148 10.7729 2.92749 10.342 4.10396 9.87685L10.8344 7.10668C11.5184 6.81941 13.7551 5.88917 13.7551 5.88917C13.7551 5.88917 14.8563 5.51982 14.7674 6.50477H14.7879Z" fill="black"/>
</svg>
