<svg xmlns="http://www.w3.org/2000/svg" viewBox="0 0 35.38 35.38"><g id="ELEMENTS"><path d="M17.69,0A17.69,17.69,0,1,0,35.38,17.69,17.69,17.69,0,0,0,17.69,0Zm9.44,12.34a.5.5,0,0,1-.1.31,7.84,7.84,0,0,1-1.55,1.6c-.08.07-.23.14-.23.26a11.91,11.91,0,0,1-3.14,8.68,11.71,11.71,0,0,1-11.33,2.65A10.9,10.9,0,0,1,8.59,25c-.23-.13-.46-.26-.69-.41-.05,0-.09-.08-.05-.11s.09,0,.27,0A7.74,7.74,0,0,0,11.39,24a5,5,0,0,0,2.16-1.15l0,0a3.41,3.41,0,0,0-.43-.06A4.23,4.23,0,0,1,10,20.14c0-.1,0-.16.11-.14a4.79,4.79,0,0,0,1.5,0,2.32,2.32,0,0,1-.51-.16,4.07,4.07,0,0,1-2.51-3.25,3.52,3.52,0,0,1,0-.45c0-.11.06-.14.15-.08a4.27,4.27,0,0,0,1.54.43c-.18-.14-.34-.29-.49-.43a4,4,0,0,1-.69-4.77c.08-.11.13-.11.22,0a12.33,12.33,0,0,0,8,4c.08,0,.09,0,.08-.09a4.22,4.22,0,0,1,0-1.66A3.93,3.93,0,0,1,18.14,12a4.11,4.11,0,0,1,1.31-1.07,4.24,4.24,0,0,1,1.63-.46,3.74,3.74,0,0,1,1.72.28,3.91,3.91,0,0,1,1.12.68,1.34,1.34,0,0,1,.2.21.16.16,0,0,0,.16,0,10,10,0,0,0,2.32-.88.09.09,0,0,1,.1,0s0,.06,0,.1A3.57,3.57,0,0,1,26.06,12c-.19.23-.65.8-1,.85a7.78,7.78,0,0,0,1.95-.56c.08,0,.08-.05.08,0Z"/></g></svg>